<?xml version="1.0" encoding="UTF-8" standalone="no"?>
<!DOCTYPE svg PUBLIC "-//W3C//DTD SVG 1.1//EN" "http://www.w3.org/Graphics/SVG/1.1/DTD/svg11.dtd">
<svg width="100%" height="100%" viewBox="0 0 24 24" version="1.1" xmlns="http://www.w3.org/2000/svg" xmlns:xlink="http://www.w3.org/1999/xlink" xml:space="preserve" xmlns:serif="http://www.serif.com/" style="fill-rule:evenodd;clip-rule:evenodd;stroke-linejoin:round;stroke-miterlimit:2;">
    <path d="M12,2C15.84,2 19,5.16 19,9C19,11.38 17.81,13.47 16,14.74L16,17C16,17.549 15.549,18 15,18L9,18C8.451,18 8,17.549 8,17L8,14.74C6.19,13.47 5,11.38 5,9C5,5.16 8.16,2 12,2M9,21L9,20L15,20L15,21C15,21.549 14.549,22 14,22L10,22C9.451,22 9,21.549 9,21M12,4C9.257,4 7,6.257 7,9C7,11.05 8.23,12.81 10,13.58L10,16L14,16L14,13.58C15.77,12.81 17,11.05 17,9C17,6.257 14.743,4 12,4Z" style="fill:rgb(250,250,250);fill-rule:nonzero;"/>
</svg>
