<?xml version="1.0" encoding="UTF-8" standalone="no"?>
<!DOCTYPE svg PUBLIC "-//W3C//DTD SVG 1.1//EN" "http://www.w3.org/Graphics/SVG/1.1/DTD/svg11.dtd">
<svg width="100%" height="100%" viewBox="0 0 721 206" version="1.1" xmlns="http://www.w3.org/2000/svg" xmlns:xlink="http://www.w3.org/1999/xlink" xml:space="preserve" xmlns:serif="http://www.serif.com/" style="fill-rule:evenodd;clip-rule:evenodd;stroke-linejoin:round;stroke-miterlimit:2;">
    <g transform="matrix(1,0,0,1,691.08,-1348)">
        <path d="M-690.8,1348L-532.8,1553.7L-433.62,1553.7L-330.72,1412.3L-230.22,1553.7L-138.38,1553.7L29.22,1348L-73.68,1348L-176.58,1489.4L-279.48,1348L-382.38,1348L-485.28,1489.4L-588.18,1348L-691.08,1348L-690.8,1348Z" style="fill:rgb(240,165,0);fill-rule:nonzero;"/>
    </g>
    <g transform="matrix(1,0,0,1,691.08,-1348)">
        <path d="M-399.45,1554L-262.3,1554L-331.51,1450.2L-399.45,1554Z" style="fill:rgb(51,71,86);fill-rule:nonzero;"/>
    </g>
    <g transform="matrix(1,0,0,1,691.08,-1348)">
        <path d="M-245.14,1348L-108,1348L-176.57,1450.9L-245.14,1348Z" style="fill:rgb(51,71,86);fill-rule:nonzero;"/>
    </g>
    <g transform="matrix(1,0,0,1,691.08,-1348)">
        <path d="M-553.74,1348L-416.6,1348L-485.17,1450.9L-553.74,1348Z" style="fill:rgb(51,71,86);fill-rule:nonzero;"/>
    </g>
</svg>
