{
    "asset" : {
        "generator" : "Khronos glTF Blender I/O v1.7.33",
        "version" : "2.0"
    },
    "scene" : 0,
    "scenes" : [
        {
            "name" : "Scene",
            "nodes" : [
                0,
                1
            ]
        }
    ],
    "nodes" : [
        {
            "mesh" : 0,
            "name" : "terrain.01",
            "scale" : [
                4.67193603515625,
                4.67193603515625,
                4.67193603515625
            ]
        },
        {
            "mesh" : 1,
            "name" : "building.01",
            "rotation" : [
                0,
                -0.842993438243866,
                0,
                -0.5379238724708557
            ],
            "scale" : [
                0.34125274419784546,
                0.34125274419784546,
                0.34125274419784546
            ],
            "translation" : [
                1.0387964248657227,
                0.7352518439292908,
                -1.6349668502807617
            ]
        }
    ],
    "materials" : [
        {
            "doubleSided" : true,
            "name" : "Material.001",
            "pbrMetallicRoughness" : {
                "metallicFactor" : 0,
                "roughnessFactor" : 0.4000000059604645
            }
        }
    ],
    "meshes" : [
        {
            "extras" : {
                "name" : "terrain"
            },
            "name" : "model.001",
            "primitives" : [
                {
                    "attributes" : {
                        "POSITION" : 0,
                        "NORMAL" : 1,
                        "TEXCOORD_0" : 2,
                        "COLOR_0" : 3
                    },
                    "indices" : 4,
                    "material" : 0
                }
            ]
        },
        {
            "extras" : {
                "name" : "atmosphere_processor"
            },
            "name" : "model",
            "primitives" : [
                {
                    "attributes" : {
                        "POSITION" : 5,
                        "NORMAL" : 6,
                        "TEXCOORD_0" : 7
                    },
                    "indices" : 8
                }
            ]
        }
    ],
    "accessors" : [
        {
            "bufferView" : 0,
            "componentType" : 5126,
            "count" : 37575,
            "max" : [
                1,
                0.3782317340373993,
                0.9999998807907104
            ],
            "min" : [
                -1,
                0,
                -1.0000001192092896
            ],
            "type" : "VEC3"
        },
        {
            "bufferView" : 1,
            "componentType" : 5126,
            "count" : 37575,
            "type" : "VEC3"
        },
        {
            "bufferView" : 2,
            "componentType" : 5126,
            "count" : 37575,
            "type" : "VEC2"
        },
        {
            "bufferView" : 3,
            "componentType" : 5123,
            "count" : 37575,
            "normalized" : true,
            "type" : "VEC4"
        },
        {
            "bufferView" : 4,
            "componentType" : 5123,
            "count" : 54354,
            "type" : "SCALAR"
        },
        {
            "bufferView" : 5,
            "componentType" : 5126,
            "count" : 3064,
            "max" : [
                1.9111428260803223,
                2.2019684314727783,
                1.8784496784210205
            ],
            "min" : [
                -2.137214183807373,
                -8.127597084239824e-08,
                -2.1699061393737793
            ],
            "type" : "VEC3"
        },
        {
            "bufferView" : 6,
            "componentType" : 5126,
            "count" : 3064,
            "type" : "VEC3"
        },
        {
            "bufferView" : 7,
            "componentType" : 5126,
            "count" : 3064,
            "type" : "VEC2"
        },
        {
            "bufferView" : 8,
            "componentType" : 5123,
            "count" : 4878,
            "type" : "SCALAR"
        }
    ],
    "bufferViews" : [
        {
            "buffer" : 0,
            "byteLength" : 450900,
            "byteOffset" : 0
        },
        {
            "buffer" : 0,
            "byteLength" : 450900,
            "byteOffset" : 450900
        },
        {
            "buffer" : 0,
            "byteLength" : 300600,
            "byteOffset" : 901800
        },
        {
            "buffer" : 0,
            "byteLength" : 300600,
            "byteOffset" : 1202400
        },
        {
            "buffer" : 0,
            "byteLength" : 108708,
            "byteOffset" : 1503000
        },
        {
            "buffer" : 0,
            "byteLength" : 36768,
            "byteOffset" : 1611708
        },
        {
            "buffer" : 0,
            "byteLength" : 36768,
            "byteOffset" : 1648476
        },
        {
            "buffer" : 0,
            "byteLength" : 24512,
            "byteOffset" : 1685244
        },
        {
            "buffer" : 0,
            "byteLength" : 9756,
            "byteOffset" : 1709756
        }
    ],
    "buffers" : [
        {
            "byteLength" : 1719512,
            "uri" : "data:application/octet-stream;base64,"
        }
    ]
}
