{
    "asset" : {
        "generator" : "Khronos glTF Blender I/O v1.7.33",
        "version" : "2.0"
    },
    "scene" : 0,
    "scenes" : [
        {
            "name" : "Scene",
            "nodes" : [
                0,
                1,
                2,
                3,
                4
            ]
        }
    ],
    "nodes" : [
        {
            "mesh" : 0,
            "name" : "Cube.001",
            "rotation" : [
                0,
                -1,
                0,
                7.549790126404332e-08
            ],
            "translation" : [
                0.026472091674804688,
                0,
                2.040728807449341
            ]
        },
        {
            "mesh" : 1,
            "name" : "Cube.002",
            "rotation" : [
                0,
                -0.7071068286895752,
                0,
                -0.7071068286895752
            ],
            "translation" : [
                2.0264720916748047,
                0,
                0.04072868824005127
            ]
        },
        {
            "mesh" : 2,
            "name" : "Cube.003",
            "rotation" : [
                0,
                -1,
                0,
                7.549790126404332e-08
            ],
            "translation" : [
                0.026472091674804688,
                0,
                -1.9592711925506592
            ]
        },
        {
            "mesh" : 3,
            "name" : "Cube.004",
            "rotation" : [
                0,
                -0.7071068286895752,
                0,
                -0.7071068286895752
            ],
            "translation" : [
                -1.9735279083251953,
                0,
                0.04072892665863037
            ]
        },
        {
            "mesh" : 4,
            "name" : "Cylinder"
        }
    ],
    "meshes" : [
        {
            "name" : "Cube.006",
            "primitives" : [
                {
                    "attributes" : {
                        "POSITION" : 0,
                        "NORMAL" : 1,
                        "TEXCOORD_0" : 2
                    },
                    "indices" : 3
                }
            ]
        },
        {
            "name" : "Cube.007",
            "primitives" : [
                {
                    "attributes" : {
                        "POSITION" : 4,
                        "NORMAL" : 5,
                        "TEXCOORD_0" : 6
                    },
                    "indices" : 3
                }
            ]
        },
        {
            "name" : "Cube.005",
            "primitives" : [
                {
                    "attributes" : {
                        "POSITION" : 7,
                        "NORMAL" : 8,
                        "TEXCOORD_0" : 9
                    },
                    "indices" : 3
                }
            ]
        },
        {
            "name" : "Cube.008",
            "primitives" : [
                {
                    "attributes" : {
                        "POSITION" : 10,
                        "NORMAL" : 11,
                        "TEXCOORD_0" : 12
                    },
                    "indices" : 3
                }
            ]
        },
        {
            "name" : "Cylinder",
            "primitives" : [
                {
                    "attributes" : {
                        "POSITION" : 13,
                        "NORMAL" : 14,
                        "TEXCOORD_0" : 15
                    },
                    "indices" : 16
                }
            ]
        }
    ],
    "accessors" : [
        {
            "bufferView" : 0,
            "componentType" : 5126,
            "count" : 387,
            "max" : [
                0.9036299586296082,
                1.0916180610656738,
                0.024178266525268555
            ],
            "min" : [
                -0.9036299586296082,
                0,
                -0.024178266525268555
            ],
            "type" : "VEC3"
        },
        {
            "bufferView" : 1,
            "componentType" : 5126,
            "count" : 387,
            "type" : "VEC3"
        },
        {
            "bufferView" : 2,
            "componentType" : 5126,
            "count" : 387,
            "type" : "VEC2"
        },
        {
            "bufferView" : 3,
            "componentType" : 5123,
            "count" : 600,
            "type" : "SCALAR"
        },
        {
            "bufferView" : 4,
            "componentType" : 5126,
            "count" : 387,
            "max" : [
                0.9036299586296082,
                1.0916180610656738,
                0.024178266525268555
            ],
            "min" : [
                -0.9036299586296082,
                0,
                -0.024178266525268555
            ],
            "type" : "VEC3"
        },
        {
            "bufferView" : 5,
            "componentType" : 5126,
            "count" : 387,
            "type" : "VEC3"
        },
        {
            "bufferView" : 6,
            "componentType" : 5126,
            "count" : 387,
            "type" : "VEC2"
        },
        {
            "bufferView" : 7,
            "componentType" : 5126,
            "count" : 387,
            "max" : [
                0.9036299586296082,
                1.0916180610656738,
                0.024178266525268555
            ],
            "min" : [
                -0.9036299586296082,
                0,
                -0.024178266525268555
            ],
            "type" : "VEC3"
        },
        {
            "bufferView" : 8,
            "componentType" : 5126,
            "count" : 387,
            "type" : "VEC3"
        },
        {
            "bufferView" : 9,
            "componentType" : 5126,
            "count" : 387,
            "type" : "VEC2"
        },
        {
            "bufferView" : 10,
            "componentType" : 5126,
            "count" : 387,
            "max" : [
                0.9036299586296082,
                1.0916180610656738,
                0.024178266525268555
            ],
            "min" : [
                -0.9036299586296082,
                0,
                -0.024178266525268555
            ],
            "type" : "VEC3"
        },
        {
            "bufferView" : 11,
            "componentType" : 5126,
            "count" : 387,
            "type" : "VEC3"
        },
        {
            "bufferView" : 12,
            "componentType" : 5126,
            "count" : 387,
            "type" : "VEC2"
        },
        {
            "bufferView" : 13,
            "componentType" : 5126,
            "count" : 1618,
            "max" : [
                1.652122139930725,
                1.8645577430725098,
                1.6521220207214355
            ],
            "min" : [
                -1.6521220207214355,
                -2.905726432800293e-07,
                -1.7882441282272339
            ],
            "type" : "VEC3"
        },
        {
            "bufferView" : 14,
            "componentType" : 5126,
            "count" : 1618,
            "type" : "VEC3"
        },
        {
            "bufferView" : 15,
            "componentType" : 5126,
            "count" : 1618,
            "type" : "VEC2"
        },
        {
            "bufferView" : 16,
            "componentType" : 5123,
            "count" : 2478,
            "type" : "SCALAR"
        }
    ],
    "bufferViews" : [
        {
            "buffer" : 0,
            "byteLength" : 4644,
            "byteOffset" : 0
        },
        {
            "buffer" : 0,
            "byteLength" : 4644,
            "byteOffset" : 4644
        },
        {
            "buffer" : 0,
            "byteLength" : 3096,
            "byteOffset" : 9288
        },
        {
            "buffer" : 0,
            "byteLength" : 1200,
            "byteOffset" : 12384
        },
        {
            "buffer" : 0,
            "byteLength" : 4644,
            "byteOffset" : 13584
        },
        {
            "buffer" : 0,
            "byteLength" : 4644,
            "byteOffset" : 18228
        },
        {
            "buffer" : 0,
            "byteLength" : 3096,
            "byteOffset" : 22872
        },
        {
            "buffer" : 0,
            "byteLength" : 4644,
            "byteOffset" : 25968
        },
        {
            "buffer" : 0,
            "byteLength" : 4644,
            "byteOffset" : 30612
        },
        {
            "buffer" : 0,
            "byteLength" : 3096,
            "byteOffset" : 35256
        },
        {
            "buffer" : 0,
            "byteLength" : 4644,
            "byteOffset" : 38352
        },
        {
            "buffer" : 0,
            "byteLength" : 4644,
            "byteOffset" : 42996
        },
        {
            "buffer" : 0,
            "byteLength" : 3096,
            "byteOffset" : 47640
        },
        {
            "buffer" : 0,
            "byteLength" : 19416,
            "byteOffset" : 50736
        },
        {
            "buffer" : 0,
            "byteLength" : 19416,
            "byteOffset" : 70152
        },
        {
            "buffer" : 0,
            "byteLength" : 12944,
            "byteOffset" : 89568
        },
        {
            "buffer" : 0,
            "byteLength" : 4956,
            "byteOffset" : 102512
        }
    ],
    "buffers" : [
        {
            "byteLength" : 107468,
            "uri" : "data:application/octet-stream;base64,"
        }
    ]
}
